<?xml version="1.0" encoding="iso-8859-1"?>
<!-- Generator: Adobe Illustrator 19.0.0, SVG Export Plug-In . SVG Version: 6.00 Build 0)  -->
<svg version="1.1" id="Capa_1" xmlns="http://www.w3.org/2000/svg" xmlns:xlink="http://www.w3.org/1999/xlink" x="0px" y="0px"
	 viewBox="0 0 512 512" style="enable-background:new 0 0 512 512;" xml:space="preserve">
<g>
	<g>
		<path d="M206.651,109.035H68.095c-18.94,0-34.349,15.409-34.349,34.349v43.289c19.56,6.342,33.747,24.728,33.747,46.374v42.749
			H241v-74.99v-57.422C241,124.444,225.591,109.035,206.651,109.035z"/>
	</g>
</g>
<g>
	<g>
		<path d="M443.905,109.034H305.349c-18.94,0-34.349,15.409-34.349,34.349v57.422v74.99h173.507v-42.748
			c0-21.646,14.186-40.032,33.747-46.375v-43.289C478.254,124.443,462.845,109.034,443.905,109.034z"/>
	</g>
</g>
<g>
	<g>
		<path d="M493.254,214.301c-10.337,0-18.747,8.41-18.747,18.746v72.749H37.493v-72.749c0-10.336-8.41-18.746-18.746-18.746
			C8.41,214.301,0,222.711,0,233.047v132.739h30.011v37.18h30v-37.18H451.99v37.18h30v-37.18H512V233.047
			C512,222.711,503.59,214.301,493.254,214.301z"/>
	</g>
</g>
<g>
</g>
<g>
</g>
<g>
</g>
<g>
</g>
<g>
</g>
<g>
</g>
<g>
</g>
<g>
</g>
<g>
</g>
<g>
</g>
<g>
</g>
<g>
</g>
<g>
</g>
<g>
</g>
<g>
</g>
</svg>
