<svg id="Layer_1" height="512" viewBox="0 0 120 120" width="512" xmlns="http://www.w3.org/2000/svg"><g><path d="m32.04 80.07h-13.94l-5.12 27.35c-.09.48-.51.82-.98.82-.06 0-.13-.01-.19-.02-.54-.1-.9-.63-.8-1.17l5.25-28-5.25-35.19c-.09-.55.29-1.05.84-1.14.54-.08 1.05.3 1.13.85l5.16 34.5h7.24c1.96 1.29 4.28 2 6.66 2z"/><path d="m46.47 107.05c.1.54-.26 1.07-.8 1.17-.06.01-.12.02-.18.02-.48 0-.9-.34-.99-.82l-5.12-27.35h2.03z"/><path d="m62.9 22.82c0 6.09-4.96 11.05-11.06 11.05s-11.06-4.96-11.06-11.05c0-6.1 4.96-11.06 11.06-11.06s11.06 4.95 11.06 11.06z"/><path d="m67.51 60.74c-.06.11-.12.22-.2.33-.8 1.27-2.17 2-3.62 2-.48 0-.96-.08-1.43-.24-1.08-.37-2.47-.9-4.05-1.59 0 0 0 0-.01 0-3.59-1.58-8.16-4.04-12.15-7.6-1.56 7.04-2.03 13.53-2.16 15.92l8.8.51c.42.03.78.31.9.71l9.23 30.05c.78 2.54-.57 5.22-3.07 6.11-.54.2-1.1.29-1.65.29-1.91 0-3.73-1.12-4.54-2.96l-10.64-24.2h-10.88c-2.38 0-4.7-.71-6.66-2-.81-.53-1.56-1.16-2.23-1.89-2.28-2.46-3.43-5.79-3.17-9.12 1-12.61 4.33-21.65 6.96-27.02 2.17-4.44 7.11-6.88 12.02-5.93 2.24.43 4.26 1.52 5.85 3.15.01.02.03.03.03.05.01.01.04.04.09.11 1.08 1.23 11.1 12.49 20.67 17.42 1.06.55 1.84 1.47 2.2 2.6.35 1.1.25 2.27-.29 3.3z"/><path d="m109 62.07v6c0 .55-.45 1-1 1h-3.6v37.75c0 .55-.45 1-1 1h-33.02c-.55 0-1-.45-1-1v-37.75h-10.62c-.55 0-1-.45-1-1v-6c0-.35.18-.65.44-.83h.01c1.58.69 2.97 1.22 4.05 1.59.47.16.95.24 1.43.24 1.45 0 2.82-.73 3.62-2h40.69c.55 0 1 .44 1 1z"/><g><path d="m100.67 33.83h-1.92l-.89-3.1c-.13-.42-.52-.72-.96-.72h-5.53l-.27-4.76c-.02-.41-.3-.77-.7-.9l-5.38-1.7c-.53-.17-1.09.13-1.26.65-.17.53.13 1.09.65 1.26l4.72 1.49.23 3.96h-4.43c-.45 0-.84.3-.96.72l-.9 3.1h-1.91c-.56 0-1 .45-1 1v4.36c0 .55.44 1 1 1h1.05l.25 3.39h16.91l.25-3.39h1.05c.55 0 1-.45 1-1v-4.36c0-.55-.45-1-1-1z"/><path d="m83.14 52.68h15.55l.53-7.09h-16.61z"/><path d="m83.62 59.14c.04.52.47.93 1 .93h12.59c.52 0 .96-.41.99-.93l.33-4.47h-15.24z"/></g></g></svg>