<svg id="Layer_1" height="512" viewBox="0 0 66 66" width="512" xmlns="http://www.w3.org/2000/svg"><g><g><path d="m29.1 13.9c.6 1.2 1.9 3.4 3.9 3.4s3.3-2.2 3.9-3.4c.5-.3.9-.8 1.1-1.5.3-1 .1-2.3-.7-3-.6-2.2-2.3-3.7-4.3-3.7s-3.7 1.5-4.3 3.6c-.8.7-.9 2-.7 3 .2.8.6 1.3 1.1 1.6z"/></g><g><path d="m43.3 22c-.2-1.3-1.3-2.5-2.8-2.9-1.3-.4-1.8-.7-3.4-.8-.3 0-.7.1-.9.4s-.3.6-.2.9c.9 2.9-1.4 5.9-3 7.6-1.9-2-3.7-5.4-3-7.6.1-.3 0-.7-.2-.9-.2-.3-.5-.4-.9-.4-1.6.1-2.1.4-3.5.8-1.5.4-2.6 1.5-2.8 2.9l-1.4 8.1h23.3z"/></g><g><path d="m45 32.7c-.1-.4-.5-.7-.8-.7h-22.5c-.4 0-.7.3-.8.7l-8.4 26.2c-.2.6.2 1.3.8 1.3h39.2c.6 0 1-.7.8-1.3z"/></g><g><path d="m54.7 35.1c-1.4.9-2.2 2.4-2.2 4 0 2.7 2.5 5 5.5 5s5.5-2.2 5.5-5c0-2.7-2.5-5-5.5-5-1.2 0-2.4.3-3.3 1z"/></g><g><path d="m58 44.6c-2.8 0-4.9 1.1-6 3.2l3.4 12.5h8.6c.5 0 1-.5 1-1v-8.4c0-3.5-3.2-6.3-7-6.3z"/></g><g><path d="m48.3 36.2 2.9 9.1c.5-.5 1-1 1.6-1.4-1.4-1.3-2.3-3-2.3-5 0-1.8.7-3.5 2-4.8-1.7.3-3.2 1-4.2 2.1z"/></g><g><path d="m53.5 33.6c3.1 0 5.5-2.3 5.5-5s-2.5-5-5.5-5c-1.2 0-2.4.4-3.3 1-1.4.9-2.2 2.4-2.2 4 0 2.8 2.5 5 5.5 5z"/></g><g><path d="m8 43.9c3 0 5.5-2.2 5.5-4.9 0-1.6-.8-3-2.2-4-.9-.6-2.1-1-3.3-1-3 0-5.5 2.2-5.5 5 0 2.6 2.5 4.9 5.5 4.9z"/></g><g><path d="m14 47.6c-1.1-2-3.3-3.2-6-3.2-3.9 0-7 2.8-7 6.3v8.4c0 .5.5 1 1 1h8.6c-.2-.6-.2-1.2 0-1.9z"/></g><g><path d="m13.2 43.9c.6.4 1.1.8 1.6 1.4l2.9-9.1c-1-1.1-2.5-1.8-4.3-2 1.3 1.3 2 3 2 4.8.1 1.9-.8 3.6-2.2 4.9z"/></g><g><path d="m12.5 33.5c3 0 5.5-2.2 5.5-4.9 0-2.9-2.6-4.9-5.5-4.9-3 0-5.5 2.2-5.5 4.9 0 2.6 2.4 4.9 5.5 4.9z"/></g></g></svg>