<svg id="Layer_1" enable-background="new 0 0 66 66" viewBox="0 0 66 66" xmlns="http://www.w3.org/2000/svg"><g><g><path d="m35 63.5h-1v-24.7h10.6c.6 0 1-.4 1-1s-.4-1-1-1h-23.2c-.5 0-1 .4-1 1s.5 1 1 1h10.6v24.7h-1c-.5 0-1 .5-1 1 0 .6.5 1 1 1h4c.5 0 1-.4 1-1s-.5-1-1-1z"/></g><g><path d="m58 21.2c3.6 0 6.5-2.9 6.5-6.5s-2.9-6.5-6.5-6.5-6.5 2.9-6.5 6.5 2.9 6.5 6.5 6.5z"/></g><g><path d="m62.2 24.2h-16.2l-3.5-3.5c-1.3-1.4-3.5-1.3-4.9 0s-1.4 3.6 0 4.9l4.6 4.6c.7.6 1.5 1 2.5 1h5.3v12.8h-9.1c-1.8 0-3.3 1.5-3.3 3.3v17.2c0 .6.5 1 1 1h6.8c.6 0 1-.4 1-1v-11.7h15.9c1.8 0 3.3-1.5 3.3-3.3v-22.1c-.1-1.8-1.6-3.2-3.4-3.2z"/></g><g><path d="m25.2 44h-9.2v-16.6c0-1.8-1.5-3.3-3.3-3.3h-9c-1.8 0-3.3 1.5-3.3 3.3v22.1c0 1.8 1.5 3.3 3.3 3.3h15.9v11.7c0 .6.4 1 1 1h6.8c.6 0 1-.4 1-1v-17.2c.1-1.8-1.4-3.3-3.2-3.3z"/></g><g><path d="m8 21.2c3.6 0 6.5-2.9 6.5-6.5s-2.9-6.5-6.5-6.5-6.5 2.9-6.5 6.5c.1 3.6 3 6.5 6.5 6.5z"/></g><g><path d="m61.5 63.5h-3.2v-8.7h-2v8.7h-3.2c-.5 0-1 .5-1 1 0 .6.5 1 1 1h8.4c.5 0 1-.4 1-1s-.4-1-1-1z"/></g><g><path d="m13 63.5h-3.2v-8.7h-2v8.7h-3.2c-.6 0-1 .5-1 1 0 .6.4 1 1 1h8.4c.6 0 1-.4 1-1s-.4-1-1-1z"/></g><g><path d="m20.1 17.2h2.6v5.3c0 .8 1 1.3 1.6.8l7.4-6.1h13.9c.5 0 1-.4 1-1v-14.7c0-.6-.5-1-1-1h-25.5c-.6 0-1 .4-1 1v14.7c0 .6.4 1 1 1zm5.1-11.7h15.2c.6 0 1 .4 1 1s-.4 1-1 1h-15.2c-.6 0-1-.4-1-1s.5-1 1-1zm0 4.8h15.2c.6 0 1 .4 1 1s-.4 1-1 1h-15.2c-.6 0-1-.4-1-1 0-.5.5-1 1-1z"/></g></g></svg>