<svg height="512" viewBox="0 0 96 96" width="512" xmlns="http://www.w3.org/2000/svg"><g id="Pantry"><path d="m91.17 9.33h-34.34a3.84 3.84 0 0 0 -3.83 3.84v19.5a3.84 3.84 0 0 0 3.83 3.83h34.34a3.84 3.84 0 0 0 3.83-3.83v-19.5a3.84 3.84 0 0 0 -3.83-3.84zm-28.68 7.25h-3.74a1.67 1.67 0 1 1 0-3.33h3.74a1.67 1.67 0 1 1 0 3.33z"/><path d="m91.17 38.5h-34.34a5.8 5.8 0 0 1 -2.83-.74 3.82 3.82 0 0 0 -1 2.57v47.17h42v-47.17a3.82 3.82 0 0 0 -1-2.57 5.8 5.8 0 0 1 -2.83.74zm-28.68 6h-3.74a1.67 1.67 0 1 1 0-3.33h3.74a1.67 1.67 0 1 1 0 3.33z"/><path d="m53 89.5h7.25v5.5h-7.25z"/><path d="m87.75 89.5h7.25v5.5h-7.25z"/><path d="m62.25 89.5h23.5v5.5h-23.5z"/><path d="m91.17 7.06a2.11 2.11 0 0 0 -2.11-2.06h-5.6a2.08 2.08 0 0 0 -1.55.68l-1.56 1.65h10.82z"/><path d="m1 63.25h50v26.25h-50z"/><path d="m1 56h50v5.25h-50z"/><path d="m3.25 91.5h47.75v3.5h-47.75z"/><path d="m43 1h-42v33.5h42zm-4 29.5h-34v-25.5h34z"/><path d="m18.58 7h-11.58v21.5h11.58zm-2.58 11.92a1 1 0 0 1 -2 0v-2.34a1 1 0 1 1 2 0z"/><path d="m37 7h-11.58v21.5h11.58zm-7 11.92a1 1 0 0 1 -2 0v-2.34a1 1 0 0 1 2 0z"/><path d="m20.58 7h2.84v21.5h-2.84z"/><path d="m25.42 54v-11.75h-22.29v11.75zm-9.17-7.75h5.17v5.75h-5.17zm-9.12 0h7.12v5.75h-7.12z"/></g></svg>